<?xml version="1.0" encoding="UTF-8" standalone="no"?>
<!-- Created with Inkscape (http://www.inkscape.org/) -->

<svg
   xmlns:dc="http://purl.org/dc/elements/1.1/"
   xmlns:cc="http://creativecommons.org/ns#"
   xmlns:rdf="http://www.w3.org/1999/02/22-rdf-syntax-ns#"
   xmlns:svg="http://www.w3.org/2000/svg"
   xmlns="http://www.w3.org/2000/svg"
   xmlns:sodipodi="http://sodipodi.sourceforge.net/DTD/sodipodi-0.dtd"
   xmlns:inkscape="http://www.inkscape.org/namespaces/inkscape"
   width="96"
   height="96"
   id="svg6517"
   version="1.1"
   inkscape:version="0.91 r13725"
   sodipodi:docname="icon (2).svg">
  <defs
     id="defs6519">
    <linearGradient
       id="Background">
      <stop
         id="stop4178"
         offset="0"
         style="stop-color:#b8b8b8;stop-opacity:1" />
      <stop
         id="stop4180"
         offset="1"
         style="stop-color:#c9c9c9;stop-opacity:1" />
    </linearGradient>
    <filter
       style="color-interpolation-filters:sRGB;"
       inkscape:label="Inner Shadow"
       id="filter1121">
      <feFlood
         flood-opacity="0.59999999999999998"
         flood-color="rgb(0,0,0)"
         result="flood"
         id="feFlood1123" />
      <feComposite
         in="flood"
         in2="SourceGraphic"
         operator="out"
         result="composite1"
         id="feComposite1125" />
      <feGaussianBlur
         in="composite1"
         stdDeviation="1"
         result="blur"
         id="feGaussianBlur1127" />
      <feOffset
         dx="0"
         dy="2"
         result="offset"
         id="feOffset1129" />
      <feComposite
         in="offset"
         in2="SourceGraphic"
         operator="atop"
         result="composite2"
         id="feComposite1131" />
    </filter>
    <filter
       style="color-interpolation-filters:sRGB;"
       inkscape:label="Drop Shadow"
       id="filter950">
      <feFlood
         flood-opacity="0.25"
         flood-color="rgb(0,0,0)"
         result="flood"
         id="feFlood952" />
      <feComposite
         in="flood"
         in2="SourceGraphic"
         operator="in"
         result="composite1"
         id="feComposite954" />
      <feGaussianBlur
         in="composite1"
         stdDeviation="1"
         result="blur"
         id="feGaussianBlur956" />
      <feOffset
         dx="0"
         dy="1"
         result="offset"
         id="feOffset958" />
      <feComposite
         in="SourceGraphic"
         in2="offset"
         operator="over"
         result="composite2"
         id="feComposite960" />
    </filter>
    <clipPath
       clipPathUnits="userSpaceOnUse"
       id="clipPath873">
      <g
         transform="matrix(0,-0.66666667,0.66604479,0,-258.25992,677.00001)"
         id="g875"
         inkscape:label="Layer 1"
         style="fill:#ff00ff;fill-opacity:1;stroke:none;display:inline">
        <path
           style="fill:#ff00ff;fill-opacity:1;stroke:none;display:inline"
           d="m 46.702703,898.22775 50.594594,0 C 138.16216,898.22775 144,904.06497 144,944.92583 l 0,50.73846 c 0,40.86071 -5.83784,46.69791 -46.702703,46.69791 l -50.594594,0 C 5.8378378,1042.3622 0,1036.525 0,995.66429 L 0,944.92583 C 0,904.06497 5.8378378,898.22775 46.702703,898.22775 Z"
           id="path877"
           inkscape:connector-curvature="0"
           sodipodi:nodetypes="sssssssss" />
      </g>
    </clipPath>
    <filter
       inkscape:collect="always"
       id="filter891"
       inkscape:label="Badge Shadow">
      <feGaussianBlur
         inkscape:collect="always"
         stdDeviation="0.71999962"
         id="feGaussianBlur893" />
    </filter>
    <linearGradient
       x1="17.66"
       y1="300.84"
       gradientTransform="matrix(1.2750068,0,0,1.2750068,-99.32586,-460.15627)"
       x2="584.47"
       gradientUnits="userSpaceOnUse"
       y2="300.84"
       id="linearGradient7379">
      <stop
         id="stop5148"
         offset="0"
         stop-color="#e6e6e6" />
      <stop
         id="stop5150"
         offset="1"
         stop-color="#595959" />
    </linearGradient>
  </defs>
  <sodipodi:namedview
     id="base"
     pagecolor="#ffffff"
     bordercolor="#666666"
     borderopacity="1.0"
     inkscape:pageopacity="0.0"
     inkscape:pageshadow="2"
     inkscape:zoom="1.4405661"
     inkscape:cx="20.967969"
     inkscape:cy="40.05921"
     inkscape:document-units="px"
     inkscape:current-layer="layer1"
     showgrid="true"
     fit-margin-top="0"
     fit-margin-left="0"
     fit-margin-right="0"
     fit-margin-bottom="0"
     inkscape:window-width="1536"
     inkscape:window-height="801"
     inkscape:window-x="-8"
     inkscape:window-y="-8"
     inkscape:window-maximized="1"
     showborder="true"
     showguides="true"
     inkscape:guide-bbox="true"
     inkscape:showpageshadow="false">
    <inkscape:grid
       type="xygrid"
       id="grid821" />
    <sodipodi:guide
       orientation="1,0"
       position="16,48"
       id="guide823" />
    <sodipodi:guide
       orientation="0,1"
       position="64,80"
       id="guide825" />
    <sodipodi:guide
       orientation="1,0"
       position="80,40"
       id="guide827" />
    <sodipodi:guide
       orientation="0,1"
       position="64,16"
       id="guide829" />
  </sodipodi:namedview>
  <metadata
     id="metadata6522">
    <rdf:RDF>
      <cc:Work
         rdf:about="">
        <dc:format>image/svg+xml</dc:format>
        <dc:type
           rdf:resource="http://purl.org/dc/dcmitype/StillImage" />
        <dc:title />
      </cc:Work>
    </rdf:RDF>
  </metadata>
  <g
     inkscape:label="BACKGROUND"
     inkscape:groupmode="layer"
     id="layer1"
     transform="translate(268,-635.29076)"
     style="display:inline">
    <path
       style="display:inline;fill:#305680;fill-opacity:1;stroke:none;filter:url(#filter1121)"
       d="m -268,700.15563 0,-33.72973 c 0,-27.24324 3.88785,-31.13513 31.10302,-31.13513 l 33.79408,0 c 27.21507,0 31.1029,3.89189 31.1029,31.13513 l 0,33.72973 c 0,27.24325 -3.88783,31.13514 -31.1029,31.13514 l -33.79408,0 c -27.21517,0 -31.10302,-3.89189 -31.10302,-31.13514 z"
       id="path6455"
       inkscape:connector-curvature="0"
       sodipodi:nodetypes="sssssssss" />
    <g
       style="fill:#ffffff"
       transform="matrix(0.16273216,0,0,0.16273216,-246.03702,538.07184)"
       id="g4241">
      <path
         inkscape:connector-curvature="0"
         d="m 151.13,732.36 c -28.363,0 -54.915,7.9153 -77.613,21.537 -6.4723,-5.2623 -14.605,-8.1915 -23.067,-8.1937 a 8.7661,8.7661 0 0 0 -0.0035,0 c -20.154,7.3e-4 -36.679,16.528 -36.678,36.682 a 8.7661,8.7661 0 0 0 0,0.0106 c 0.0099,8.4147 2.9267,16.483 8.1033,22.927 -13.83,22.83 -21.87,49.58 -21.87,78.17 a 8.7661,8.7661 0 1 0 17.531,0 c 0,-24.702 6.7193,-47.748 18.378,-67.574 4.5663,1.9846 9.4727,3.1496 14.519,3.1573 a 8.7661,8.7661 0 0 0 0.01241,0 c 20.155,6.2e-4 36.683,-16.527 36.682,-36.682 a 8.7661,8.7661 0 0 0 0,-0.004 c -0.0016,-4.9994 -1.1387,-9.8628 -3.0828,-14.397 19.717,-11.484 42.585,-18.095 67.085,-18.095 a 8.7661,8.7661 0 1 0 0,-17.531 z M 50.44,763.24 c 5.9129,0.002 11.191,2.5121 14.836,7.0769 a 8.7661,8.7661 0 0 0 0.1826,0.21451 c 2.6715,3.3798 4.1326,7.5531 4.1341,11.863 -0.0015,10.677 -8.468,19.144 -19.144,19.148 -4.37,-0.008 -8.6011,-1.5088 -12,-4.2546 a 8.7661,8.7661 0 0 0 -0.01241,-0.009 c -4.514,-3.6331 -7.1358,-9.0979 -7.1442,-14.893 0.0025,-10.677 8.4701,-19.144 19.148,-19.146 z"
         style="color:#000000;text-indent:0;text-decoration:none;text-decoration-line:none;text-decoration-style:solid;text-decoration-color:#000000;text-transform:none;block-progression:tb;white-space:normal;isolation:auto;mix-blend-mode:normal;solid-color:#000000;fill:#ffffff;color-rendering:auto;image-rendering:auto;shape-rendering:auto"
         id="path4278" />
      <path
         inkscape:connector-curvature="0"
         d="m 66.992,835.19 c -1.492,1.5583 -2.3663,3.7103 -2.2576,6.0713 0.0962,2.0447 0.91322,4.0204 2.3372,5.5177 6.8051,6.8559 20.223,20.223 20.223,20.223 l 11.844,-11.83 c 0,0 -12.973,-12.961 -20.176,-20.171 -1.604,-1.6325 -3.7498,-2.3141 -6.012,-2.3243 -2.3583,-0.0112 -4.4673,0.95389 -5.9592,2.5122 z M 99.139,855.173 62.5,891.812 c -3.9751,3.976 -3.9751,10.421 0,14.397 l 18.156,18.156 31.753,31.753 30.478,30.478 c 3.9758,3.9759 10.422,3.9763 14.398,0 l 24.791,-24.791 37.914,-37.914 36.639,-36.639 c 3.9754,-3.9764 3.975,-10.422 -6.7e-4,-14.398 l -18.63,-18.63 -31.75,-31.76 -30.01,-30 c -3.976,-3.9751 -10.421,-3.9751 -14.397,0 l -24.79,24.79 -37.91,37.91 z m 37.911,-37.91 c 0,0 -12.973,-12.961 -20.176,-20.171 -1.604,-1.6325 -3.7498,-2.3141 -6.012,-2.3243 -4.7166,-0.0226 -8.4341,3.8616 -8.2169,8.5834 0.0962,2.0447 0.91322,4.0204 2.3372,5.5177 6.8051,6.8559 20.223,20.223 20.223,20.223 l 11.844,-11.83 z m 69.193,5.2132 c 0,0 12.961,-12.973 20.171,-20.176 1.6325,-1.604 2.3141,-3.7498 2.3243,-6.012 0.0225,-4.7166 -3.8616,-8.4341 -8.5834,-8.2169 -2.0447,0.0962 -4.0204,0.91322 -5.5177,2.3372 -6.8559,6.8051 -20.223,20.223 -20.223,20.223 l 11.83,11.844 z m 31.753,31.753 c 0,0 12.961,-12.973 20.171,-20.176 1.6325,-1.604 2.314,-3.7498 2.3243,-6.012 0.0225,-4.7166 -3.8616,-8.4341 -8.5834,-8.2169 -2.0447,0.0962 -4.0204,0.91323 -5.5177,2.3372 -6.8559,6.8051 -20.223,20.223 -20.223,20.223 l 11.83,11.844 z m -18.009,69.667 c 0,0 12.973,12.961 20.178,20.169 1.604,1.6324 3.7498,2.314 6.012,2.3243 4.7166,0.0225 8.4342,-3.8615 8.2169,-8.5834 l -0.002,0.002 c -0.0962,-2.0447 -0.91415,-4.0214 -2.3382,-5.5186 -6.8051,-6.8559 -20.222,-20.222 -20.222,-20.222 l -11.844,11.83 z m -37.914,37.914 c 0,0 12.973,12.961 20.178,20.169 1.604,1.6324 3.7498,2.314 6.012,2.3242 4.7166,0.023 8.4342,-3.8615 8.2169,-8.5834 l -0.002,0 c -0.0962,-2.0447 -0.91323,-4.0205 -2.3372,-5.5177 -6.8051,-6.8559 -20.223,-20.223 -20.223,-20.223 l -11.844,11.83 z m -69.667,-5.6871 c 0,0 -12.961,12.973 -20.169,20.178 -1.6324,1.604 -2.314,3.7498 -2.3243,6.012 -0.02251,4.7166 3.8615,8.4342 8.5834,8.2169 l -0.0019,0 c 2.0447,-0.096 4.0204,-0.9132 5.5177,-2.3373 6.8561,-6.8048 20.223,-20.223 20.223,-20.223 l -11.82,-11.84 z m -31.743,-31.74 c 0,0 -12.961,12.973 -20.169,20.178 -1.6324,1.604 -2.314,3.7498 -2.3243,6.012 -0.02251,4.7167 3.8615,8.4342 8.5834,8.2169 l -0.0019,0 c 2.0447,-0.0962 4.0204,-0.91322 5.5177,-2.3372 6.8561,-6.8047 20.223,-20.223 20.223,-20.223 l -11.829,-11.85 z m 87.237,-90.554 c 1.6794,-1.7064 3.9669,-2.6599 6.2971,-2.626 1.6628,0.0237 3.253,0.55012 4.5625,1.5097 l 16.499,12.1 c 3.2009,2.297 4.1445,6.6589 2.2308,10.312 -1.9137,3.6528 -6.1234,5.5243 -9.9506,4.4227 l 6.124,23.948 c 1.1128,4.3517 -1.564,8.9677 -5.9833,10.317 l -44.642,13.631 8.2456,31.883 c 1.1728,4.3696 -1.5017,9.0445 -5.9546,10.407 -4.4529,1.3625 -8.9756,-1.1106 -10.068,-5.5047 l -10.282,-39.769 c -1.1265,-4.3556 1.5493,-8.9847 5.9759,-10.338 l 44.661,-13.637 -4.1219,-16.118 c -2.7634,3.0643 -7.2335,3.8084 -10.586,1.7615 -3.3531,-2.0469 -4.6144,-6.2896 -2.9861,-10.047 l 8.1169,-19.454 c 0.43322,-1.0376 1.0673,-1.9888 1.8624,-2.7973 z"
         style="color:#000000;text-indent:0;text-decoration:none;text-decoration-line:none;text-decoration-style:solid;text-decoration-color:#000000;text-transform:none;block-progression:tb;white-space:normal;isolation:auto;mix-blend-mode:normal;solid-color:#000000;fill:#ffffff;fill-rule:evenodd;color-rendering:auto;image-rendering:auto;shape-rendering:auto"
         id="path4486-0-9-6-9-7-6-5" />
      <path
         inkscape:connector-curvature="0"
         d="m 168.87,1052.4 c 28.363,0 54.915,-7.9155 77.614,-21.538 6.4724,5.2624 14.605,8.1917 23.067,8.1939 a 8.7662,8.7662 0 0 0 0.004,0 c 20.155,-7e-4 36.68,-16.528 36.679,-36.682 a 8.7662,8.7662 0 0 0 0,-0.011 c -0.01,-8.4149 -2.9267,-16.484 -8.1034,-22.927 13.825,-22.82 21.866,-49.572 21.866,-78.162 a 8.7662,8.7662 0 1 0 -17.531,0 c 0,24.703 -6.7194,47.749 -18.378,67.575 -4.5664,-1.9846 -9.4728,-3.1496 -14.519,-3.1573 a 8.7662,8.7662 0 0 0 -0.0124,0 c -20.155,-6.2e-4 -36.683,16.527 -36.682,36.682 0.002,4.9994 1.1387,9.8628 3.0829,14.397 -19.717,11.484 -42.586,18.095 -67.086,18.095 a 8.7662,8.7662 0 1 0 0,17.531 z m 100.69,-30.875 c -5.913,0 -11.191,-2.5122 -14.836,-7.0769 a 8.7662,8.7662 0 0 0 -0.18261,-0.2146 c -2.6715,-3.3799 -4.1327,-7.5531 -4.1341,-11.863 0.002,-10.677 8.4681,-19.144 19.144,-19.148 4.37,0.008 8.6012,1.5088 12,4.2547 a 8.7662,8.7662 0 0 0 0.0124,0.009 c 4.5141,3.6332 7.1359,9.098 7.1443,14.893 -0.003,10.677 -8.4702,19.145 -19.148,19.146 z"
         style="color:#000000;text-indent:0;text-decoration:none;text-decoration-line:none;text-decoration-style:solid;text-decoration-color:#000000;text-transform:none;block-progression:tb;white-space:normal;isolation:auto;mix-blend-mode:normal;solid-color:#000000;fill:#ffffff;color-rendering:auto;image-rendering:auto;shape-rendering:auto"
         id="path4278-5" />
    </g>
  </g>
  <g
     inkscape:groupmode="layer"
     id="layer3"
     inkscape:label="PLACE YOUR PICTOGRAM HERE"
     style="display:inline" />
  <g
     inkscape:groupmode="layer"
     id="layer2"
     inkscape:label="BADGE"
     style="display:none"
     sodipodi:insensitive="true">
    <g
       style="display:inline"
       transform="translate(-340.00001,-581)"
       id="g4394"
       clip-path="none">
      <g
         id="g855">
        <g
           inkscape:groupmode="maskhelper"
           id="g870"
           clip-path="url(#clipPath873)"
           style="opacity:0.6;filter:url(#filter891)">
          <path
             transform="matrix(1.4999992,0,0,1.4999992,-29.999795,-237.54282)"
             d="m 264,552.36218 a 12,12 0 0 1 -12,12 12,12 0 0 1 -12,-12 12,12 0 0 1 12,-12 12,12 0 0 1 12,12 z"
             sodipodi:ry="12"
             sodipodi:rx="12"
             sodipodi:cy="552.36218"
             sodipodi:cx="252"
             id="path844"
             style="color:#000000;fill:#000000;fill-opacity:1;fill-rule:nonzero;stroke:none;stroke-width:4;marker:none;visibility:visible;display:inline;overflow:visible;enable-background:accumulate"
             sodipodi:type="arc" />
        </g>
        <g
           id="g862">
          <path
             sodipodi:type="arc"
             style="color:#000000;fill:#f5f5f5;fill-opacity:1;fill-rule:nonzero;stroke:none;stroke-width:4;marker:none;visibility:visible;display:inline;overflow:visible;enable-background:accumulate"
             id="path4398"
             sodipodi:cx="252"
             sodipodi:cy="552.36218"
             sodipodi:rx="12"
             sodipodi:ry="12"
             d="m 264,552.36218 a 12,12 0 0 1 -12,12 12,12 0 0 1 -12,-12 12,12 0 0 1 12,-12 12,12 0 0 1 12,12 z"
             transform="matrix(1.4999992,0,0,1.4999992,-29.999795,-238.54282)" />
          <path
             transform="matrix(1.25,0,0,1.25,33,-100.45273)"
             d="m 264,552.36218 a 12,12 0 0 1 -12,12 12,12 0 0 1 -12,-12 12,12 0 0 1 12,-12 12,12 0 0 1 12,12 z"
             sodipodi:ry="12"
             sodipodi:rx="12"
             sodipodi:cy="552.36218"
             sodipodi:cx="252"
             id="path4400"
             style="color:#000000;fill:#dd4814;fill-opacity:1;fill-rule:nonzero;stroke:none;stroke-width:4;marker:none;visibility:visible;display:inline;overflow:visible;enable-background:accumulate"
             sodipodi:type="arc" />
          <path
             sodipodi:type="star"
             style="color:#000000;fill:#f5f5f5;fill-opacity:1;fill-rule:nonzero;stroke:none;stroke-width:3;marker:none;visibility:visible;display:inline;overflow:visible;enable-background:accumulate"
             id="path4459"
             sodipodi:sides="5"
             sodipodi:cx="666.19574"
             sodipodi:cy="589.50385"
             sodipodi:r1="7.2431178"
             sodipodi:r2="4.3458705"
             sodipodi:arg1="1.0471976"
             sodipodi:arg2="1.6755161"
             inkscape:flatsided="false"
             inkscape:rounded="0.1"
             inkscape:randomized="0"
             d="m 669.8173,595.77657 c -0.39132,0.22593 -3.62645,-1.90343 -4.07583,-1.95066 -0.44938,-0.0472 -4.05653,1.36297 -4.39232,1.06062 -0.3358,-0.30235 0.68963,-4.03715 0.59569,-4.47913 -0.0939,-0.44198 -2.5498,-3.43681 -2.36602,-3.8496 0.18379,-0.41279 4.05267,-0.59166 4.44398,-0.81759 0.39132,-0.22593 2.48067,-3.48704 2.93005,-3.4398 0.44938,0.0472 1.81505,3.67147 2.15084,3.97382 0.3358,0.30236 4.08294,1.2817 4.17689,1.72369 0.0939,0.44198 -2.9309,2.86076 -3.11469,3.27355 -0.18379,0.41279 0.0427,4.27917 -0.34859,4.5051 z"
             transform="matrix(1.511423,-0.16366377,0.16366377,1.511423,-755.37346,-191.93651)" />
        </g>
      </g>
    </g>
  </g>
</svg>
